<?xml version="1.0" encoding="UTF-8" standalone="no"?>
<!-- Created with Inkscape (http://www.inkscape.org/) -->

<svg
   width="141.60826mm"
   height="220.36015mm"
   viewBox="0 0 141.60826 220.36015"
   version="1.1"
   id="svg1"
   xml:space="preserve"
   xmlns="http://www.w3.org/2000/svg"
   xmlns:svg="http://www.w3.org/2000/svg"><defs
     id="defs1" /><g
     id="layer1"
     transform="translate(13.414629,-487.35178)"><path
       id="path130"
       style="fill:#00b9f2;fill-opacity:1;stroke-width:0.34077"
       d="m 94.597371,487.3532 c -0.220217,0.028 -0.574375,0.47802 -1.144116,1.19218 -2.40521,3.01478 -2.960178,5.14454 -2.843238,10.91509 l 0.06976,3.44062 -2.41949,3.61373 c -2.89079,4.31736 -3.436653,5.67257 -3.947563,9.7994 -0.2139,1.72777 -0.759035,4.9523 -1.211295,7.16598 -0.45227,2.21368 -0.868715,4.32273 -0.925525,4.68653 l -0.103353,0.66146 3.642155,2.44223 c 4.31273,2.89202 4.082619,2.84642 4.689119,0.93121 h -5.16e-4 c 1.47438,-4.65586 1.997377,-8.56528 1.980757,-14.80737 -0.0115,-4.32551 0.162594,-5.14586 1.768884,-8.34419 0.64569,-1.28564 1.360444,-3.06602 1.588534,-3.95635 l 0.414962,-1.61902 -0.171049,-1.74305 c -0.094,-0.95876 -0.364407,-2.69554 -0.600997,-3.85971 l -0.430465,-2.11667 0.0031,-4.29948 c 0.0019,-3.02408 0.0074,-4.14921 -0.359668,-4.10259 z m 12.383739,6.45387 c -0.17714,-0.0775 -0.44041,0.5037 -0.89142,1.69912 l -0.59324,1.572 v 6.35 6.35 l -1.1157,2.24896 c -0.61358,1.23693 -1.59627,3.0927 -2.18384,4.12429 -1.3335,2.34122 -1.52033,3.42357 -1.71979,9.96012 l -0.15917,5.22087 -0.52038,2.0345 c -0.28622,1.11914 -0.937066,2.79241 -1.445906,3.71812 -1.21922,2.21811 -1.262049,2.10027 1.400431,3.84214 1.274495,0.8338 3.028815,2.04795 3.898475,2.69803 2.10988,1.57715 2.21729,1.52915 3.21789,-1.43919 0.4654,-1.38063 1.21015,-4.09614 1.65519,-6.03477 l 0.80926,-3.52485 v -2.65565 -2.65514 l -1.09348,-3.56722 -1.09399,-3.56723 0.1478,-2.29133 c 0.0813,-1.26015 0.5249,-3.7791 0.98547,-5.59811 l 0.83715,-3.30729 v -1.98438 -1.98437 l -0.78393,-3.175 c -0.43119,-1.74625 -0.87076,-4.34777 -0.97668,-5.78104 -0.10636,-1.43918 -0.19699,-2.17511 -0.37414,-2.25258 z m -62.127473,24.81761 -0.644405,0.24494 c -0.35424,0.13468 -1.354087,0.8331 -2.222087,1.55185 -0.86801,0.71875 -1.998541,1.59437 -2.511991,1.94613 -0.51345,0.35176 -1.866925,1.41366 -3.008085,2.35955 -1.14115,0.94589 -3.776927,2.96994 -5.857007,4.49791 -2.08008,1.52796 -5.905303,4.45747 -8.500773,6.5102 -2.59547,2.05273 -6.028779,4.71392 -7.629509,5.91385 -3.22228,2.41547 -3.381218,2.63912 -2.355928,3.31091 1.38905,0.91014 8.921835,7.86494 15.125175,13.96452 4.53314,4.45732 4.117544,4.27497 6.160864,2.70268 0.85773,-0.66001 1.652304,-1.34547 1.765784,-1.5229 0.63211,-0.98835 13.709085,-13.17645 20.981665,-19.5554 2.107,-1.84811 5.319055,-4.69015 7.138065,-6.31589 1.81901,-1.62573 4.349086,-3.78899 5.622396,-4.80746 3.19984,-2.55945 3.334932,-2.46131 -7.342187,-5.35833 -1.45521,-0.39484 -3.419735,-1.04736 -4.365625,-1.45056 -0.94588,-0.40321 -3.386659,-1.23958 -5.423959,-1.85828 -2.03729,-0.61869 -4.430728,-1.35192 -5.318538,-1.62936 z m 30.48341,10.07122 c -0.69256,0 -5.966797,4.26811 -12.261266,9.92187 -1.944141,1.74625 -4.029733,3.58899 -4.634343,4.09484 -2.68747,2.24852 -13.079522,11.94617 -19.608622,18.29811 -2.18899,2.1296 -4.323373,4.1611 -4.742863,4.51445 l -0.762744,0.64234 -0.215491,2.55644 c -0.11865,1.40623 -0.413941,8.48301 -0.656291,15.72617 l -0.4408,13.16974 0.176734,10.44535 c 0.0971,5.74491 0.27888,11.93617 0.40411,13.75834 l 0.227893,3.31297 3.263366,3.13521 c 7.16866,6.88727 15.766098,14.99502 16.919898,15.95613 0.67135,0.55923 2.635885,2.26895 4.365625,3.79926 3.55849,3.14823 9.665446,8.24087 13.173356,10.98537 1.29544,1.01351 2.664658,2.10701 3.042708,2.42983 1.06839,0.91232 1.318091,0.81034 6.583061,-2.67322 2.72355,-1.80203 7.631057,-5.28761 10.905277,-7.7463 3.27422,-2.45869 7.056385,-5.24092 8.404655,-6.18257 1.34828,-0.94165 3.66999,-2.56677 5.15938,-3.61115 3.01338,-2.11305 5.66019,-3.90985 10.38076,-7.04763 1.74625,-1.16074 4.14464,-2.89708 5.3299,-3.85816 1.18526,-0.96108 2.77169,-2.22343 3.52537,-2.80552 2.03119,-1.56872 1.94273,-1.13509 2.65255,-12.96458 0.14844,-2.47385 0.44104,-6.99824 0.65061,-10.05417 0.79153,-11.54162 1.15627,-25.29304 0.96273,-36.30734 l -0.0243,-1.38235 -0.8599,-0.78393 c -2.31779,-2.11319 -7.01771,-6.00934 -9.94616,-8.24549 -1.79591,-1.37134 -4.6402,-3.54372 -6.32106,-4.82709 -3.21642,-2.45581 -8.57842,-6.26472 -14.064774,-9.99164 -4.73592,-3.21715 -5.855111,-3.99227 -9.686231,-6.70915 -4.983835,-3.53434 -11.31944,-7.55613 -11.90315,-7.55613 z M 8.8475663,546.70152 c -0.54086,0.0165 -4.225598,4.35315 -12.352218,14.53813 -4.62199,5.79268 -8.0803673,10.84139 -8.7860273,12.82661 l -0.378271,1.06401 -0.391707,9.26042 c -0.466,11.02001 -0.472098,21.64673 -0.01705,29.63333 l 0.331763,5.82084 1.077454,1.85208 c 0.59247,1.01865 1.52873,2.68552 2.0810103,3.70417 1.00276,1.84955 6.65352,10.46338 8.87180996,13.52424 2.76339004,3.813 5.02346104,6.71638 5.22862104,6.71638 0.12142,0 2.073113,-1.39898 4.337203,-3.10885 2.2640897,-1.70987 7.3576087,-5.72823 11.3186887,-8.92969 3.96108,-3.20146 7.659283,-6.17802 8.218103,-6.61458 1.31419,-1.02668 1.29525,-0.9554 0.98857,-3.71967 -0.31797,-2.86598 -0.425306,-34.59342 -0.139526,-41.2595 0.11229,-2.61937 0.313097,-7.25535 0.445967,-10.30221 0.25226,-5.78449 0.207166,-6.14848 -0.850594,-6.88537 -0.32629,-0.22731 -2.319654,-2.12026 -4.429704,-4.20698 -8.44893,-8.35553 -14.6915987,-13.93974 -15.5540887,-13.91336 z m 61.7993277,14.59135 c 2.023137,-0.0541 3.767297,2.18425 4.324284,6.30505 1.15005,8.50852 -0.849409,16.86569 -4.26744,17.83715 -1.219179,0.34651 -1.451604,0.36085 -2.211234,0.13591 -1.48886,-0.44087 -2.435161,-1.80554 -3.110921,-4.48758 l -0.366386,-1.45521 0.02791,-4.36563 c 0.0167,-2.62428 0.202048,-5.47376 0.465088,-7.14375 l 0.437699,-2.77812 0.953947,-1.38648 c 1.218968,-1.77136 2.533176,-2.62889 3.747058,-2.66134 z m 35.012856,15.52826 0.97668,0.47749 c 3.68,1.79879 3.84092,15.98821 0.22789,20.09283 -1.63494,1.8574 -3.46479,2.43099 -5.15782,1.61644 -0.33828,-0.16276 -0.84429,-0.7453 -1.12448,-1.2945 l -0.50953,-0.99839 v -2.8081 c 0,-10.8427 1.38087,-15.95325 4.54081,-16.80414 z m -53.609136,15.98197 2.645833,0.36948 c 5.37427,0.75039 7.067493,2.02142 6.453353,4.84415 l -0.201538,0.92604 -1.210779,1.10433 c -2.42832,2.21434 -9.144509,3.35133 -13.806909,2.33732 -2.86089,-0.62221 -4.182018,-1.50782 -4.607988,-3.08973 l -0.274401,-1.01958 0.503845,-1.13843 0.503328,-1.13843 1.265556,-0.83819 c 1.88187,-1.2465 3.962781,-1.93989 6.480741,-2.16008 z m 61.457746,12.11088 c 0.18362,-0.002 0.36487,-0.002 0.54415,5.2e-4 5.01991,0.0577 8.33505,1.61349 8.92091,4.28088 l 0.16433,0.74879 -0.44235,0.67541 c -0.24341,0.3715 -0.99795,0.92247 -1.6769,1.22421 l -1.23455,0.54881 -2.64584,0.0682 c -1.45521,0.0375 -3.6985,-0.0406 -4.98522,-0.17312 -3.25396,-0.3353 -4.37105,-0.68807 -5.38365,-1.70067 l -0.87592,-0.87591 v -0.91674 c 0,-1.19697 0.78187,-2.16217 2.42673,-2.99568 l 1.3162,-0.66663 2.16317,-0.14935 c 0.58779,-0.0405 1.1581,-0.0634 1.70894,-0.0687 z m -31.517972,1.834 h 1.444873 c 6.179925,0 10.263932,1.68697 8.686292,3.5879 l -0.315743,0.38085 -2.018482,-0.0305 c -1.10997,-0.0165 -3.089534,-0.1931 -4.399214,-0.39274 -1.30969,-0.19963 -2.640719,-0.42462 -2.957959,-0.49971 -1.339151,-0.31698 -1.853095,-1.76728 -0.923975,-2.60811 z m -50.442399,22.225 c -0.47669,0 -4.069555,2.67796 -7.278625,5.42499 -1.91512,1.63937 -9.294692,7.41842 -12.993522,10.17561 -1.4711897,1.09666 -3.0190037,2.2584 -3.4395837,2.58175 l -0.764811,0.58808 0.661458,0.54467 c 0.3638,0.29966 1.554434,1.19902 2.6458337,1.99833 l 1.984375,1.45314 0.396875,-0.5979 c 1.44476,-2.17724 2.954256,-3.87058 4.055566,-4.54959 l 1.276925,-0.78755 1.538924,-0.1111 c 2.81136,-0.20336 4.972753,1.10666 6.082833,3.68711 l 0.582393,1.35341 0.04444,2.15025 c 0.0246,1.18261 -0.03795,3.40042 -0.139526,4.92838 -0.1819,2.73528 -0.04841,2.60475 0.541569,-0.52916 3.43146,-18.22826 16.315363,-10.335 13.248803,8.11682 -0.17359,1.04454 -0.252246,2.06436 -0.174666,2.26652 l 0.141077,0.36742 2.341976,-0.36483 c 1.28808,-0.20071 7.699785,-1.25087 14.248225,-2.33371 6.548441,-1.08284 12.16723,-1.96831 12.48606,-1.96784 0.93549,10e-4 1.028246,-0.55593 0.193786,-1.16375 -0.954119,-0.69498 -12.562416,-10.42249 -15.061096,-12.62094 -3.09733,-2.72515 -13.731938,-12.56593 -18.055228,-16.7075 -2.25024,-2.15566 -4.293413,-3.90261 -4.564063,-3.90261 z m -11.011214,19.55746 c -0.659857,-0.004 -1.416692,0.24896 -2.256193,0.78135 -4.10949,2.60616 -5.983352,11.2704 -4.209562,19.46496 0.12791,0.59092 0.37523,2.39625 0.54932,4.01216 l 0.31626,2.93832 -0.453719,3.1471 c -0.24969,1.73107 -0.501172,3.22463 -0.558622,3.31918 -0.0574,0.0945 -0.223066,1.31493 -0.367936,2.71197 l -0.263033,2.54042 0.2651,2.56005 c 0.14601,1.40803 0.637779,3.81904 1.092439,5.35781 0.45465,1.53878 1.046059,3.56058 1.314649,4.49327 0.2686,0.9327 0.568212,3.10558 0.665592,4.82864 0.19092,3.37832 0.343625,3.66998 1.120345,2.14096 0.27721,-0.5457 0.827618,-2.00422 1.223698,-3.24115 l 0.72037,-2.24896 -0.171049,-5.96604 -0.171049,-5.96553 0.297656,-1.92133 c 0.16395,-1.05674 0.705801,-3.13203 1.204061,-4.6116 0.49827,-1.47956 1.084503,-3.64565 1.302763,-4.81315 l 0.396875,-2.12235 0.10852,-7.80521 0.108521,-7.8052 0.442867,-3.04271 c 0.763747,-5.24144 -0.234726,-8.47407 -2.400887,-8.7359 -0.09026,-0.0109 -0.182721,-0.0165 -0.276986,-0.0171 z m 13.462227,1.99161 c -1.428088,0.0115 -2.886632,1.91393 -4.028694,5.57072 l -0.578259,1.85209 -0.146245,3.70416 -0.145727,3.70417 0.569474,2.80241 c 1.31557,6.47439 1.268644,7.17843 -1.198376,18.09967 l -0.717269,3.175 -0.02222,4.63021 c -0.0368,7.53192 0.526883,9.5327 1.641243,5.826 0.30537,-1.01575 0.811566,-3.3077 1.124996,-5.09323 0.7535,-4.29248 1.022481,-4.98713 3.039091,-7.84706 3.66351,-5.19555 4.437025,-8.33663 3.428215,-13.92008 -0.51116,-2.82909 -0.489924,-3.92815 0.157096,-8.24188 l 0.549321,-3.66437 -0.09819,-3.175 -0.09819,-3.175 -0.617017,-1.39113 c -0.775005,-1.747 -1.663625,-2.67955 -2.574003,-2.83394 -0.09483,-0.0161 -0.190048,-0.0235 -0.285254,-0.0227 z" /></g></svg>
